<svg xmlns="http://www.w3.org/2000/svg" xmlns:xlink="http://www.w3.org/1999/xlink" width="500" zoomAndPan="magnify" viewBox="0 0 375 374.999991" height="500" preserveAspectRatio="xMidYMid meet" version="1.0"><defs><g/><clipPath id="f13d6393e3"><path d="M 124.703125 97.371094 L 250.308594 97.371094 L 250.308594 177 L 124.703125 177 Z M 124.703125 97.371094 " clip-rule="nonzero"/></clipPath><clipPath id="408adf46e0"><path d="M 151 195 L 224 195 L 224 202.992188 L 151 202.992188 Z M 151 195 " clip-rule="nonzero"/></clipPath><clipPath id="c81c70bde8"><path d="M 214 111.769531 L 223.230469 111.769531 L 223.230469 145 L 214 145 Z M 214 111.769531 " clip-rule="nonzero"/></clipPath><clipPath id="d58526e356"><path d="M 189 145 L 221 145 L 221 157.445312 L 189 157.445312 Z M 189 145 " clip-rule="nonzero"/></clipPath><clipPath id="daff9efb0c"><path d="M 153 149 L 188 149 L 188 157.445312 L 153 157.445312 Z M 153 149 " clip-rule="nonzero"/></clipPath><clipPath id="b590a59d1f"><path d="M 151.867188 115 L 158 115 L 158 150 L 151.867188 150 Z M 151.867188 115 " clip-rule="nonzero"/></clipPath></defs><rect x="-37.5" width="450" fill="#ffffff" y="-37.499999" height="449.999989" fill-opacity="1"/><rect x="-37.5" width="450" fill="#ffffff" y="-37.499999" height="449.999989" fill-opacity="1"/><rect x="-37.5" width="450" fill="#ffffff" y="-37.499999" height="449.999989" fill-opacity="1"/><path fill="#e5e9ff" d="M 202.183594 198.648438 L 172.828125 198.648438 C 171.484375 198.648438 170.390625 197.558594 170.390625 196.214844 L 170.390625 176.703125 C 170.390625 175.359375 171.484375 174.269531 172.828125 174.269531 L 202.183594 174.269531 C 203.53125 174.269531 204.621094 175.359375 204.621094 176.703125 L 204.621094 196.214844 C 204.621094 197.558594 203.53125 198.648438 202.183594 198.648438 Z M 202.183594 198.648438 " fill-opacity="1" fill-rule="nonzero"/><g clip-path="url(#f13d6393e3)"><path fill="#506eff" d="M 241.65625 176.9375 L 133.355469 176.9375 C 128.714844 176.9375 124.941406 173.171875 124.941406 168.535156 L 124.941406 105.773438 C 124.941406 101.136719 128.714844 97.371094 133.355469 97.371094 L 241.648438 97.371094 C 246.300781 97.371094 250.0625 101.136719 250.0625 105.773438 L 250.0625 168.527344 C 250.070312 173.171875 246.300781 176.9375 241.65625 176.9375 Z M 241.65625 176.9375 " fill-opacity="1" fill-rule="nonzero"/></g><g clip-path="url(#408adf46e0)"><path fill="#e5e9ff" d="M 219.988281 202.992188 L 155.027344 202.992188 C 153.011719 202.992188 151.378906 201.363281 151.378906 199.351562 C 151.378906 197.339844 153.011719 195.710938 155.027344 195.710938 L 219.988281 195.710938 C 222 195.710938 223.632812 197.339844 223.632812 199.351562 C 223.632812 201.363281 222 202.992188 219.988281 202.992188 Z M 219.988281 202.992188 " fill-opacity="1" fill-rule="nonzero"/></g><g clip-path="url(#c81c70bde8)"><path fill="#ffffff" d="M 223.1875 144.96875 L 217.910156 111.769531 C 216.859375 111.84375 215.816406 111.921875 214.789062 112.015625 L 220.066406 144.425781 Z M 223.1875 144.96875 " fill-opacity="1" fill-rule="nonzero"/></g><g clip-path="url(#d58526e356)"><path fill="#ffffff" d="M 189.390625 157.21875 L 190.019531 157.148438 C 190.601562 156.578125 191.300781 156.148438 192.074219 155.886719 L 220.949219 146.175781 L 219.355469 145.898438 C 211.453125 146.949219 191.8125 150.90625 189.390625 157.21875 Z M 189.390625 157.21875 " fill-opacity="1" fill-rule="nonzero"/></g><path fill="#ffffff" d="M 189.042969 154.8125 C 191.347656 152.046875 196.34375 149.582031 203.972656 147.464844 C 210.140625 145.75 216.3125 144.761719 218.464844 144.441406 L 213.214844 112.167969 C 199.816406 113.535156 193.621094 116.425781 190.777344 118.628906 C 187.769531 120.964844 187.886719 122.917969 187.890625 123 L 187.597656 123.054688 L 187.894531 123.042969 Z M 189.042969 154.8125 " fill-opacity="1" fill-rule="nonzero"/><g clip-path="url(#daff9efb0c)"><path fill="#ffffff" d="M 183.421875 153.5 C 179.789062 151.453125 172.171875 149.050781 156.5 149.242188 L 153.503906 150.09375 L 184.136719 156.160156 C 185.074219 156.34375 185.945312 156.773438 186.660156 157.402344 L 187.414062 157.445312 C 187.085938 156.578125 186.140625 155.039062 183.421875 153.5 Z M 183.421875 153.5 " fill-opacity="1" fill-rule="nonzero"/></g><path fill="#ffffff" d="M 184.199219 152.136719 C 185.6875 152.976562 186.730469 153.847656 187.457031 154.65625 L 186.324219 123.21875 C 184.757812 118.292969 177.453125 116.417969 171.574219 115.71875 C 166.246094 115.082031 161.105469 115.273438 159.300781 115.375 L 157.222656 147.664062 C 169.703125 147.578125 178.777344 149.078125 184.199219 152.136719 Z M 184.199219 152.136719 " fill-opacity="1" fill-rule="nonzero"/><g clip-path="url(#b590a59d1f)"><path fill="#ffffff" d="M 155.628906 147.859375 L 157.710938 115.507812 L 154.238281 115.929688 L 151.910156 149.140625 Z M 155.628906 147.859375 " fill-opacity="1" fill-rule="nonzero"/></g><path stroke-linecap="butt" transform="matrix(0.75, 0, 0, 0.75, 37.500002, 208.380572)" fill="none" stroke-linejoin="miter" d="M 105.406254 56.601949 C 112.187505 56.601949 118.48438 52.221741 118.48438 44.180074 C 118.48438 39.200907 116.083338 34.997781 111.645838 32.961323 C 108.640629 31.586323 105.713546 31.586323 105.406254 31.586323 C 102.286462 31.586323 99.281254 29.726948 99.281254 26.237364 C 99.281254 22.341531 102.109379 20.424864 105.406254 20.424864 C 108.583338 20.424864 111.291671 21.992572 111.411463 25.461322 L 118.364588 25.461322 C 118.250005 18.331114 112.67188 13.409238 105.406254 13.409238 C 98.625004 13.409238 92.265628 18.273822 92.265628 26.237364 C 92.265628 31.216531 94.72917 34.94049 99.109379 36.987365 C 102.166671 38.367573 105.052088 38.367573 105.406254 38.367573 C 108.234379 38.482157 111.526046 40.638407 111.526046 44.180074 C 111.526046 47.476949 108.640629 49.586324 105.406254 49.586324 C 102.286462 49.586324 99.41667 47.841532 99.281254 44.357157 L 92.265628 44.357157 C 92.38542 52.221741 98.156254 56.424866 105.406254 56.601949 Z M 145.95834 49.586324 C 138.223965 49.586324 132.046881 44.00299 132.046881 34.997781 C 132.046881 26.544656 137.317715 20.424864 145.95834 20.424864 C 149.796882 20.424864 153.338549 21.992572 155.859383 24.513406 L 160.781258 19.59153 C 157.000008 15.752988 151.776049 13.409238 145.95834 13.409238 C 133.656256 13.409238 124.895839 22.341531 124.895839 34.997781 C 124.895839 48.206116 134.375006 56.601949 145.95834 56.601949 C 151.776049 56.601949 157.000008 54.258199 160.781258 50.476949 L 155.859383 45.497782 C 153.338549 48.018616 149.796882 49.586324 145.95834 49.586324 Z M 199.583344 14.008197 L 192.567718 14.008197 L 192.567718 31.40924 L 175.109384 31.40924 L 175.109384 14.008197 L 168.093758 14.008197 L 168.093758 55.997783 L 175.109384 55.997783 L 175.109384 38.482157 L 192.567718 38.482157 L 192.567718 55.997783 L 199.583344 55.997783 Z M 223.390637 44.607157 C 231.973971 44.607157 238.989596 37.591532 238.989596 29.008198 C 238.989596 20.424864 231.973971 13.409238 223.390637 13.409238 C 214.822928 13.409238 207.791678 20.424864 207.791678 29.008198 C 207.791678 37.591532 214.822928 44.607157 223.390637 44.607157 Z M 223.390637 20.367572 C 228.197929 20.367572 232.031263 24.206114 232.031263 29.008198 C 232.031263 33.794656 228.197929 37.648823 223.390637 37.648823 C 218.604178 37.648823 214.765636 33.794656 214.765636 29.008198 C 214.765636 24.206114 218.604178 20.367572 223.390637 20.367572 Z M 237.07293 55.997783 L 237.07293 49.044657 L 209.359386 49.044657 L 209.359386 55.997783 Z M 261.661473 44.607157 C 270.244807 44.607157 277.260432 37.591532 277.260432 29.008198 C 277.260432 20.424864 270.244807 13.409238 261.661473 13.409238 C 253.093764 13.409238 246.062513 20.424864 246.062513 29.008198 C 246.062513 37.591532 253.093764 44.607157 261.661473 44.607157 Z M 261.661473 20.367572 C 266.463556 20.367572 270.302098 24.206114 270.302098 29.008198 C 270.302098 33.794656 266.463556 37.648823 261.661473 37.648823 C 256.875014 37.648823 253.036472 33.794656 253.036472 29.008198 C 253.036472 24.206114 256.875014 20.367572 261.661473 20.367572 Z M 275.343765 55.997783 L 275.343765 49.044657 L 247.630222 49.044657 L 247.630222 55.997783 Z M 292.682308 48.982157 L 292.682308 14.008197 L 285.666683 14.008197 L 285.666683 55.997783 L 308.223976 55.997783 L 308.223976 48.982157 Z M 292.682308 48.982157 " stroke="#000000" stroke-width="2.249989" stroke-opacity="1" stroke-miterlimit="4"/><g fill="#000000" fill-opacity="1"><g transform="translate(95.156248, 273.128068)"><g><path d="M 9.359375 -6.921875 L 7.28125 -2.21875 L 7.171875 -2 L 5.28125 -2 L 5.171875 -2.21875 L 3.078125 -6.9375 L 3.078125 0.375 L 0.96875 0.375 L 0.96875 -10.875 L 3.578125 -10.875 L 3.6875 -10.65625 L 6.25 -4.796875 L 8.78125 -10.65625 L 8.875 -10.875 L 11.53125 -10.875 L 11.53125 0.375 L 9.359375 0.375 Z M 9.359375 -6.921875 "/></g></g></g><g fill="#000000" fill-opacity="1"><g transform="translate(109.16623, 273.128068)"><g><path d="M -0.171875 -0.515625 L 3.9375 -10.640625 L 4.015625 -10.875 L 6.09375 -10.875 L 6.1875 -10.640625 L 10.234375 -0.515625 L 10.359375 -0.171875 L 10.015625 -0.03125 L 8.71875 0.5 L 8.375 0.640625 L 8.234375 0.28125 L 7.15625 -2.46875 L 2.8125 -2.46875 L 1.71875 0.25 L 1.59375 0.609375 L 1.25 0.46875 L 0.03125 -0.03125 L -0.328125 -0.171875 Z M 3.5625 -4.421875 L 6.390625 -4.421875 L 4.984375 -8.0625 Z M 3.5625 -4.421875 "/></g></g></g><g fill="#000000" fill-opacity="1"><g transform="translate(120.686218, 273.128068)"><g><path d="M 3.078125 -7.1875 L 3.078125 0.375 L 0.96875 0.375 L 0.96875 -10.875 L 3.46875 -10.875 L 3.5625 -10.6875 L 7.5 -3.265625 L 7.5 -10.875 L 9.59375 -10.875 L 9.59375 0.375 L 7.140625 0.375 L 7.03125 0.1875 Z M 3.078125 -7.1875 "/></g></g></g><g fill="#000000" fill-opacity="1"><g transform="translate(132.761211, 273.128068)"><g><path d="M -0.171875 -0.515625 L 3.9375 -10.640625 L 4.015625 -10.875 L 6.09375 -10.875 L 6.1875 -10.640625 L 10.234375 -0.515625 L 10.359375 -0.171875 L 10.015625 -0.03125 L 8.71875 0.5 L 8.375 0.640625 L 8.234375 0.28125 L 7.15625 -2.46875 L 2.8125 -2.46875 L 1.71875 0.25 L 1.59375 0.609375 L 1.25 0.46875 L 0.03125 -0.03125 L -0.328125 -0.171875 Z M 3.5625 -4.421875 L 6.390625 -4.421875 L 4.984375 -8.0625 Z M 3.5625 -4.421875 "/></g></g></g><g fill="#000000" fill-opacity="1"><g transform="translate(144.281199, 273.128068)"><g><path d="M 5.609375 -5.9375 L 9.515625 -5.9375 L 9.515625 0.375 L 7.5 0.375 L 7.5 -0.28125 C 7.269531 -0.132812 7.023438 0.00390625 6.765625 0.140625 C 6.210938 0.421875 5.601562 0.5625 4.9375 0.5625 C 4.269531 0.5625 3.65625 0.429688 3.09375 0.171875 C 2.90625 0.078125 2.726562 -0.0234375 2.5625 -0.140625 C 2.394531 -0.253906 2.234375 -0.378906 2.078125 -0.515625 C 1.921875 -0.660156 1.78125 -0.8125 1.65625 -0.96875 C 1.25 -1.457031 0.929688 -2.046875 0.703125 -2.734375 C 0.597656 -3.054688 0.515625 -3.40625 0.453125 -3.78125 C 0.398438 -4.164062 0.375 -4.566406 0.375 -4.984375 C 0.375 -5.859375 0.488281 -6.660156 0.71875 -7.390625 C 0.945312 -8.128906 1.28125 -8.769531 1.71875 -9.3125 C 1.863281 -9.5 2.019531 -9.671875 2.1875 -9.828125 C 2.363281 -9.984375 2.546875 -10.125 2.734375 -10.25 C 2.929688 -10.382812 3.140625 -10.503906 3.359375 -10.609375 C 3.992188 -10.910156 4.722656 -11.0625 5.546875 -11.0625 C 6.242188 -11.0625 6.863281 -10.972656 7.40625 -10.796875 C 7.46875 -10.773438 7.53125 -10.753906 7.59375 -10.734375 C 7.65625 -10.710938 7.710938 -10.691406 7.765625 -10.671875 C 7.816406 -10.660156 7.867188 -10.640625 7.921875 -10.609375 C 7.984375 -10.585938 8.039062 -10.566406 8.09375 -10.546875 C 8.15625 -10.523438 8.210938 -10.5 8.265625 -10.46875 C 8.328125 -10.445312 8.378906 -10.421875 8.421875 -10.390625 C 8.472656 -10.367188 8.523438 -10.34375 8.578125 -10.3125 C 8.640625 -10.289062 8.695312 -10.265625 8.75 -10.234375 C 8.800781 -10.210938 8.851562 -10.1875 8.90625 -10.15625 L 9.203125 -9.984375 L 9.078125 -9.671875 L 8.546875 -8.484375 L 8.390625 -8.109375 L 8.03125 -8.3125 C 7.894531 -8.382812 7.757812 -8.453125 7.625 -8.515625 C 7.488281 -8.578125 7.347656 -8.640625 7.203125 -8.703125 C 7.066406 -8.765625 6.9375 -8.8125 6.8125 -8.84375 C 6.613281 -8.914062 6.398438 -8.96875 6.171875 -9 C 5.953125 -9.039062 5.71875 -9.0625 5.46875 -9.0625 C 5.257812 -9.0625 5.0625 -9.039062 4.875 -9 C 4.6875 -8.957031 4.503906 -8.894531 4.328125 -8.8125 C 3.984375 -8.644531 3.6875 -8.398438 3.4375 -8.078125 C 3.175781 -7.742188 2.96875 -7.328125 2.8125 -6.828125 C 2.65625 -6.316406 2.578125 -5.726562 2.578125 -5.0625 C 2.578125 -4.476562 2.648438 -3.957031 2.796875 -3.5 C 2.929688 -3.039062 3.117188 -2.660156 3.359375 -2.359375 C 3.585938 -2.054688 3.863281 -1.832031 4.1875 -1.6875 C 4.34375 -1.601562 4.507812 -1.539062 4.6875 -1.5 C 4.875 -1.457031 5.066406 -1.4375 5.265625 -1.4375 C 5.378906 -1.4375 5.5 -1.441406 5.625 -1.453125 C 5.75 -1.472656 5.863281 -1.5 5.96875 -1.53125 C 6.082031 -1.5625 6.191406 -1.59375 6.296875 -1.625 C 6.398438 -1.664062 6.492188 -1.707031 6.578125 -1.75 C 6.640625 -1.78125 6.703125 -1.8125 6.765625 -1.84375 C 6.828125 -1.882812 6.882812 -1.921875 6.9375 -1.953125 C 7 -1.992188 7.054688 -2.03125 7.109375 -2.0625 C 7.140625 -2.082031 7.175781 -2.109375 7.21875 -2.140625 C 7.257812 -2.171875 7.296875 -2.203125 7.328125 -2.234375 C 7.359375 -2.265625 7.382812 -2.289062 7.40625 -2.3125 L 7.40625 -4.0625 L 5.234375 -4.0625 L 5.234375 -5.9375 Z M 5.609375 -5.9375 "/></g></g></g><g fill="#000000" fill-opacity="1"><g transform="translate(155.891184, 273.128068)"><g><path d="M 1.34375 -10.875 L 8.03125 -10.875 L 8.03125 -8.890625 L 3.15625 -8.890625 L 3.15625 -6.453125 L 7.34375 -6.453125 L 7.34375 -4.5 L 3.15625 -4.5 L 3.15625 -1.609375 L 8.03125 -1.609375 L 8.03125 0.375 L 0.96875 0.375 L 0.96875 -10.875 Z M 1.34375 -10.875 "/></g></g></g><g fill="#000000" fill-opacity="1"><g transform="translate(165.716176, 273.128068)"><g><path d="M 9.359375 -6.921875 L 7.28125 -2.21875 L 7.171875 -2 L 5.28125 -2 L 5.171875 -2.21875 L 3.078125 -6.9375 L 3.078125 0.375 L 0.96875 0.375 L 0.96875 -10.875 L 3.578125 -10.875 L 3.6875 -10.65625 L 6.25 -4.796875 L 8.78125 -10.65625 L 8.875 -10.875 L 11.53125 -10.875 L 11.53125 0.375 L 9.359375 0.375 Z M 9.359375 -6.921875 "/></g></g></g><g fill="#000000" fill-opacity="1"><g transform="translate(179.726158, 273.128068)"><g><path d="M 1.34375 -10.875 L 8.03125 -10.875 L 8.03125 -8.890625 L 3.15625 -8.890625 L 3.15625 -6.453125 L 7.34375 -6.453125 L 7.34375 -4.5 L 3.15625 -4.5 L 3.15625 -1.609375 L 8.03125 -1.609375 L 8.03125 0.375 L 0.96875 0.375 L 0.96875 -10.875 Z M 1.34375 -10.875 "/></g></g></g><g fill="#000000" fill-opacity="1"><g transform="translate(189.55115, 273.128068)"><g><path d="M 3.078125 -7.1875 L 3.078125 0.375 L 0.96875 0.375 L 0.96875 -10.875 L 3.46875 -10.875 L 3.5625 -10.6875 L 7.5 -3.265625 L 7.5 -10.875 L 9.59375 -10.875 L 9.59375 0.375 L 7.140625 0.375 L 7.03125 0.1875 Z M 3.078125 -7.1875 "/></g></g></g><g fill="#000000" fill-opacity="1"><g transform="translate(201.626143, 273.128068)"><g><path d="M 0.15625 -10.875 L 8.40625 -10.875 L 8.40625 -8.859375 L 5.171875 -8.859375 L 5.171875 0.375 L 3 0.375 L 3 -8.859375 L -0.21875 -8.859375 L -0.21875 -10.875 Z M 0.15625 -10.875 "/></g></g></g><g fill="#000000" fill-opacity="1"><g transform="translate(211.301137, 273.128068)"><g/></g></g><g fill="#000000" fill-opacity="1"><g transform="translate(217.301137, 273.128068)"><g><path d="M 1.421875 -2.375 C 1.597656 -2.226562 1.773438 -2.097656 1.953125 -1.984375 C 2.140625 -1.878906 2.335938 -1.78125 2.546875 -1.6875 C 2.953125 -1.519531 3.425781 -1.4375 3.96875 -1.4375 C 4.300781 -1.4375 4.585938 -1.46875 4.828125 -1.53125 C 5.078125 -1.601562 5.285156 -1.695312 5.453125 -1.8125 C 5.773438 -2.039062 5.9375 -2.347656 5.9375 -2.734375 C 5.9375 -2.765625 5.9375 -2.796875 5.9375 -2.828125 C 5.9375 -2.859375 5.929688 -2.890625 5.921875 -2.921875 C 5.921875 -2.953125 5.914062 -2.984375 5.90625 -3.015625 C 5.90625 -3.054688 5.898438 -3.085938 5.890625 -3.109375 C 5.878906 -3.140625 5.867188 -3.164062 5.859375 -3.1875 C 5.828125 -3.3125 5.742188 -3.4375 5.609375 -3.5625 C 5.460938 -3.695312 5.25 -3.835938 4.96875 -3.984375 C 4.65625 -4.148438 4.257812 -4.328125 3.78125 -4.515625 C 3.21875 -4.722656 2.75 -4.9375 2.375 -5.15625 C 1.957031 -5.375 1.617188 -5.617188 1.359375 -5.890625 C 1.273438 -5.992188 1.195312 -6.09375 1.125 -6.1875 C 1.050781 -6.289062 0.984375 -6.394531 0.921875 -6.5 C 0.867188 -6.613281 0.820312 -6.726562 0.78125 -6.84375 C 0.664062 -7.175781 0.609375 -7.554688 0.609375 -7.984375 C 0.609375 -8.410156 0.695312 -8.8125 0.875 -9.1875 C 1.0625 -9.570312 1.332031 -9.90625 1.6875 -10.1875 C 2.019531 -10.457031 2.429688 -10.671875 2.921875 -10.828125 C 3.398438 -10.984375 3.945312 -11.0625 4.5625 -11.0625 C 5.207031 -11.0625 5.789062 -10.992188 6.3125 -10.859375 C 6.832031 -10.734375 7.34375 -10.550781 7.84375 -10.3125 L 8.15625 -10.140625 L 8.03125 -9.8125 L 7.5 -8.59375 L 7.328125 -8.203125 L 6.953125 -8.421875 C 6.859375 -8.484375 6.753906 -8.539062 6.640625 -8.59375 C 6.523438 -8.644531 6.398438 -8.691406 6.265625 -8.734375 C 6.140625 -8.785156 6 -8.835938 5.84375 -8.890625 C 5.425781 -9.015625 4.988281 -9.078125 4.53125 -9.078125 C 4.226562 -9.078125 3.960938 -9.046875 3.734375 -8.984375 C 3.515625 -8.929688 3.332031 -8.859375 3.1875 -8.765625 C 3.082031 -8.691406 3 -8.617188 2.9375 -8.546875 C 2.875 -8.472656 2.832031 -8.394531 2.8125 -8.3125 C 2.789062 -8.238281 2.78125 -8.15625 2.78125 -8.0625 C 2.78125 -7.894531 2.796875 -7.757812 2.828125 -7.65625 C 2.859375 -7.550781 2.9375 -7.445312 3.0625 -7.34375 C 3.132812 -7.289062 3.21875 -7.226562 3.3125 -7.15625 C 3.414062 -7.09375 3.535156 -7.023438 3.671875 -6.953125 C 3.742188 -6.929688 3.816406 -6.898438 3.890625 -6.859375 C 3.972656 -6.816406 4.0625 -6.773438 4.15625 -6.734375 C 4.257812 -6.691406 4.363281 -6.648438 4.46875 -6.609375 C 4.582031 -6.578125 4.695312 -6.535156 4.8125 -6.484375 C 5.414062 -6.265625 5.921875 -6.035156 6.328125 -5.796875 C 6.421875 -5.742188 6.503906 -5.691406 6.578125 -5.640625 C 6.660156 -5.585938 6.738281 -5.535156 6.8125 -5.484375 C 6.882812 -5.429688 6.953125 -5.375 7.015625 -5.3125 C 7.085938 -5.257812 7.15625 -5.203125 7.21875 -5.140625 C 7.28125 -5.085938 7.332031 -5.035156 7.375 -4.984375 C 7.65625 -4.679688 7.859375 -4.351562 7.984375 -4 C 8.097656 -3.664062 8.15625 -3.296875 8.15625 -2.890625 C 8.15625 -2.335938 8.046875 -1.847656 7.828125 -1.421875 C 7.617188 -0.992188 7.328125 -0.628906 6.953125 -0.328125 C 6.578125 -0.0234375 6.128906 0.195312 5.609375 0.34375 C 5.109375 0.488281 4.5625 0.5625 3.96875 0.5625 C 3.207031 0.5625 2.503906 0.453125 1.859375 0.234375 C 1.222656 0.0234375 0.679688 -0.242188 0.234375 -0.578125 L -0.03125 -0.796875 L 0.15625 -1.078125 L 0.875 -2.28125 L 1.09375 -2.65625 Z M 1.421875 -2.375 "/></g></g></g><g fill="#000000" fill-opacity="1"><g transform="translate(227.321125, 273.128068)"><g><path d="M 4.578125 -6.046875 L 7.40625 -10.765625 L 7.59375 -11.078125 L 7.921875 -10.90625 L 9.046875 -10.25 L 9.375 -10.046875 L 9.171875 -9.71875 L 5.609375 -3.890625 L 5.609375 0.375 L 3.4375 0.375 L 3.4375 -3.890625 L -0.15625 -9.71875 L -0.359375 -10.03125 L -0.03125 -10.234375 L 1.171875 -10.953125 L 1.5 -11.140625 L 1.6875 -10.828125 Z M 4.578125 -6.046875 "/></g></g></g><g fill="#000000" fill-opacity="1"><g transform="translate(237.806122, 273.128068)"><g><path d="M 1.421875 -2.375 C 1.597656 -2.226562 1.773438 -2.097656 1.953125 -1.984375 C 2.140625 -1.878906 2.335938 -1.78125 2.546875 -1.6875 C 2.953125 -1.519531 3.425781 -1.4375 3.96875 -1.4375 C 4.300781 -1.4375 4.585938 -1.46875 4.828125 -1.53125 C 5.078125 -1.601562 5.285156 -1.695312 5.453125 -1.8125 C 5.773438 -2.039062 5.9375 -2.347656 5.9375 -2.734375 C 5.9375 -2.765625 5.9375 -2.796875 5.9375 -2.828125 C 5.9375 -2.859375 5.929688 -2.890625 5.921875 -2.921875 C 5.921875 -2.953125 5.914062 -2.984375 5.90625 -3.015625 C 5.90625 -3.054688 5.898438 -3.085938 5.890625 -3.109375 C 5.878906 -3.140625 5.867188 -3.164062 5.859375 -3.1875 C 5.828125 -3.3125 5.742188 -3.4375 5.609375 -3.5625 C 5.460938 -3.695312 5.25 -3.835938 4.96875 -3.984375 C 4.65625 -4.148438 4.257812 -4.328125 3.78125 -4.515625 C 3.21875 -4.722656 2.75 -4.9375 2.375 -5.15625 C 1.957031 -5.375 1.617188 -5.617188 1.359375 -5.890625 C 1.273438 -5.992188 1.195312 -6.09375 1.125 -6.1875 C 1.050781 -6.289062 0.984375 -6.394531 0.921875 -6.5 C 0.867188 -6.613281 0.820312 -6.726562 0.78125 -6.84375 C 0.664062 -7.175781 0.609375 -7.554688 0.609375 -7.984375 C 0.609375 -8.410156 0.695312 -8.8125 0.875 -9.1875 C 1.0625 -9.570312 1.332031 -9.90625 1.6875 -10.1875 C 2.019531 -10.457031 2.429688 -10.671875 2.921875 -10.828125 C 3.398438 -10.984375 3.945312 -11.0625 4.5625 -11.0625 C 5.207031 -11.0625 5.789062 -10.992188 6.3125 -10.859375 C 6.832031 -10.734375 7.34375 -10.550781 7.84375 -10.3125 L 8.15625 -10.140625 L 8.03125 -9.8125 L 7.5 -8.59375 L 7.328125 -8.203125 L 6.953125 -8.421875 C 6.859375 -8.484375 6.753906 -8.539062 6.640625 -8.59375 C 6.523438 -8.644531 6.398438 -8.691406 6.265625 -8.734375 C 6.140625 -8.785156 6 -8.835938 5.84375 -8.890625 C 5.425781 -9.015625 4.988281 -9.078125 4.53125 -9.078125 C 4.226562 -9.078125 3.960938 -9.046875 3.734375 -8.984375 C 3.515625 -8.929688 3.332031 -8.859375 3.1875 -8.765625 C 3.082031 -8.691406 3 -8.617188 2.9375 -8.546875 C 2.875 -8.472656 2.832031 -8.394531 2.8125 -8.3125 C 2.789062 -8.238281 2.78125 -8.15625 2.78125 -8.0625 C 2.78125 -7.894531 2.796875 -7.757812 2.828125 -7.65625 C 2.859375 -7.550781 2.9375 -7.445312 3.0625 -7.34375 C 3.132812 -7.289062 3.21875 -7.226562 3.3125 -7.15625 C 3.414062 -7.09375 3.535156 -7.023438 3.671875 -6.953125 C 3.742188 -6.929688 3.816406 -6.898438 3.890625 -6.859375 C 3.972656 -6.816406 4.0625 -6.773438 4.15625 -6.734375 C 4.257812 -6.691406 4.363281 -6.648438 4.46875 -6.609375 C 4.582031 -6.578125 4.695312 -6.535156 4.8125 -6.484375 C 5.414062 -6.265625 5.921875 -6.035156 6.328125 -5.796875 C 6.421875 -5.742188 6.503906 -5.691406 6.578125 -5.640625 C 6.660156 -5.585938 6.738281 -5.535156 6.8125 -5.484375 C 6.882812 -5.429688 6.953125 -5.375 7.015625 -5.3125 C 7.085938 -5.257812 7.15625 -5.203125 7.21875 -5.140625 C 7.28125 -5.085938 7.332031 -5.035156 7.375 -4.984375 C 7.65625 -4.679688 7.859375 -4.351562 7.984375 -4 C 8.097656 -3.664062 8.15625 -3.296875 8.15625 -2.890625 C 8.15625 -2.335938 8.046875 -1.847656 7.828125 -1.421875 C 7.617188 -0.992188 7.328125 -0.628906 6.953125 -0.328125 C 6.578125 -0.0234375 6.128906 0.195312 5.609375 0.34375 C 5.109375 0.488281 4.5625 0.5625 3.96875 0.5625 C 3.207031 0.5625 2.503906 0.453125 1.859375 0.234375 C 1.222656 0.0234375 0.679688 -0.242188 0.234375 -0.578125 L -0.03125 -0.796875 L 0.15625 -1.078125 L 0.875 -2.28125 L 1.09375 -2.65625 Z M 1.421875 -2.375 "/></g></g></g><g fill="#000000" fill-opacity="1"><g transform="translate(247.82611, 273.128068)"><g><path d="M 0.15625 -10.875 L 8.40625 -10.875 L 8.40625 -8.859375 L 5.171875 -8.859375 L 5.171875 0.375 L 3 0.375 L 3 -8.859375 L -0.21875 -8.859375 L -0.21875 -10.875 Z M 0.15625 -10.875 "/></g></g></g><g fill="#000000" fill-opacity="1"><g transform="translate(257.501105, 273.128068)"><g><path d="M 1.34375 -10.875 L 8.03125 -10.875 L 8.03125 -8.890625 L 3.15625 -8.890625 L 3.15625 -6.453125 L 7.34375 -6.453125 L 7.34375 -4.5 L 3.15625 -4.5 L 3.15625 -1.609375 L 8.03125 -1.609375 L 8.03125 0.375 L 0.96875 0.375 L 0.96875 -10.875 Z M 1.34375 -10.875 "/></g></g></g><g fill="#000000" fill-opacity="1"><g transform="translate(267.326097, 273.128068)"><g><path d="M 9.359375 -6.921875 L 7.28125 -2.21875 L 7.171875 -2 L 5.28125 -2 L 5.171875 -2.21875 L 3.078125 -6.9375 L 3.078125 0.375 L 0.96875 0.375 L 0.96875 -10.875 L 3.578125 -10.875 L 3.6875 -10.65625 L 6.25 -4.796875 L 8.78125 -10.65625 L 8.875 -10.875 L 11.53125 -10.875 L 11.53125 0.375 L 9.359375 0.375 Z M 9.359375 -6.921875 "/></g></g></g></svg>