<svg id="Capa_1" enable-background="new 0 0 512 512" height="512" viewBox="0 0 512 512" width="512" xmlns="http://www.w3.org/2000/svg"><g><g><path clip-rule="evenodd" d="m346.197 330.817h133.914v132.573h-133.914z" fill="#bbec6a" fill-rule="evenodd"/></g><g><path clip-rule="evenodd" d="m303.614 105.158 27.187-35.928c2.687-3.561 2.015-5.633-2.278-6.946l-43.102-13.105-25.785-36.921c-2.541-3.677-4.731-3.677-7.301 0l-25.785 36.921-43.102 13.105c-4.293 1.313-4.964 3.386-2.249 6.946l27.158 35.928-.847 45.005c-.088 4.495 1.665 5.75 5.899 4.29l42.577-14.71 42.577 14.71c4.234 1.459 6.016.204 5.928-4.29z" fill="#fec165" fill-rule="evenodd"/></g><g><path clip-rule="evenodd" d="m303.614 105.158 27.187-35.928c2.687-3.561 2.015-5.633-2.278-6.946l-43.102-13.105-25.785-36.921c-.876-1.255-1.694-2.072-2.511-2.481 12.265 16.315 20.149 41.678 20.149 70.135 0 24.108-5.665 45.998-14.835 62.05l36.123 12.492c4.234 1.459 6.016.204 5.928-4.29z" fill="#fea610" fill-rule="evenodd"/></g><g><path clip-rule="evenodd" d="m31.859 332.876h138.064v130.514h-138.064z" fill="#00c0fa" fill-rule="evenodd"/></g><g><path clip-rule="evenodd" d="m165.803 343.172v-50.025h-129.213c-2.599 0-4.731 2.131-4.731 4.728v45.297z" fill="#fec165" fill-rule="evenodd"/></g><g><path clip-rule="evenodd" d="m356.499 463.39v-120.218-50.025-42.379h-200.998v42.379 50.025 120.218z" fill="#fb2a39" fill-rule="evenodd"/></g><g><path clip-rule="evenodd" d="m356.499 261.071v-43.809c0-3.415-2.833-6.246-6.249-6.246h-188.529c-3.417 0-6.22 2.831-6.22 6.246v43.809z" fill="#fec165" fill-rule="evenodd"/></g><g><path clip-rule="evenodd" d="m480.111 343.172v-45.297c0-2.598-2.132-4.728-4.731-4.728h-143.605v50.025z" fill="#fec165" fill-rule="evenodd"/></g><g><path clip-rule="evenodd" d="m124.05 293.147h31.451v50.025h-31.451z" fill="#fea610" fill-rule="evenodd"/></g><g><path clip-rule="evenodd" d="m124.05 343.172h31.451v109.916h-31.451z" fill="#08a9f1" fill-rule="evenodd"/></g><g><path clip-rule="evenodd" d="m356.499 261.071v-43.809c0-3.415-2.833-6.246-6.249-6.246h-34.02c3.446 0 6.249 2.831 6.249 6.246v43.809z" fill="#fea610" fill-rule="evenodd"/></g><g><path clip-rule="evenodd" d="m356.499 293.147v-32.076h-34.02v32.076 50.025 109.916h34.02v-109.916z" fill="#dd003a" fill-rule="evenodd"/></g><g><path clip-rule="evenodd" d="m480.111 343.172v-45.297c0-2.598-2.132-4.728-4.731-4.728h-27.83c2.599 0 4.731 2.131 4.731 4.728v45.297z" fill="#fea610" fill-rule="evenodd"/></g><g><path clip-rule="evenodd" d="m452.282 343.172h27.83v109.916h-27.83z" fill="#97da7b" fill-rule="evenodd"/></g><g><path clip-rule="evenodd" d="m356.499 453.088h-200.998-123.642-16.908c-8.235 0-14.951 6.742-14.951 14.972v19.496c0 8.23 6.716 14.943 14.951 14.943h482.068c8.235 0 14.981-6.713 14.981-14.943v-19.496c0-8.23-6.746-14.973-14.981-14.973h-16.908-123.612z" fill="#f8f2f0" fill-rule="evenodd"/></g><g><path clip-rule="evenodd" d="m512 468.06c0-8.23-6.746-14.973-14.981-14.973h-16.908-27.83-7.505c8.235 0 14.951 6.742 14.951 14.973v19.496c0 8.23-6.716 14.943-14.951 14.943h52.243c8.235 0 14.981-6.713 14.981-14.943z" fill="#eee1dc" fill-rule="evenodd"/></g><g><path d="m429.709 97.411h-63.602c-4.267 0-7.726-3.457-7.726-7.722s3.459-7.722 7.726-7.722h63.602c4.267 0 7.726 3.457 7.726 7.722s-3.459 7.722-7.726 7.722z" fill="#668d97"/></g><g><path d="m366.113 54.656c-2.758 0-5.425-1.479-6.818-4.079-2.014-3.759-.598-8.439 3.164-10.452l52.301-27.99c3.762-2.013 8.444-.598 10.459 3.162 2.014 3.759.598 8.439-3.164 10.452l-52.301 27.99c-1.161.621-2.41.917-3.641.917z" fill="#668d97"/></g><g><path d="m418.401 168.131c-1.231 0-2.479-.296-3.641-.917l-52.301-27.989c-3.762-2.013-5.178-6.692-3.164-10.452s6.696-5.174 10.459-3.162l52.301 27.989c3.762 2.013 5.178 6.692 3.164 10.452-1.393 2.599-4.061 4.079-6.818 4.079z" fill="#668d97"/></g><g><path d="m145.864 97.411h-63.573c-4.267 0-7.726-3.457-7.726-7.722s3.459-7.722 7.726-7.722h63.573c4.267 0 7.726 3.457 7.726 7.722.001 4.265-3.459 7.722-7.726 7.722z" fill="#668d97"/></g><g><path d="m145.858 54.656c-1.231 0-2.48-.296-3.641-.917l-52.301-27.99c-3.762-2.013-5.178-6.692-3.164-10.452 2.015-3.761 6.699-5.174 10.459-3.162l52.301 27.99c3.762 2.013 5.178 6.692 3.164 10.452-1.393 2.6-4.061 4.079-6.818 4.079z" fill="#668d97"/></g><g><path d="m93.57 168.131c-2.758 0-5.425-1.479-6.818-4.079-2.014-3.759-.598-8.439 3.164-10.452l52.301-27.989c3.762-2.013 8.444-.598 10.459 3.162 2.014 3.759.598 8.439-3.164 10.452l-52.301 27.989c-1.161.622-2.41.917-3.641.917z" fill="#668d97"/></g><g><path d="m264.746 400.89c-4.267 0-7.726-3.457-7.726-7.722v-75.463l-11.174 7.228c-3.583 2.317-8.366 1.294-10.685-2.286-2.319-3.579-1.295-8.36 2.287-10.678l23.099-14.943c2.378-1.537 5.404-1.651 7.89-.302 2.487 1.352 4.035 3.954 4.035 6.784v89.66c0 4.266-3.459 7.722-7.726 7.722z" fill="#f8f2f0"/></g></g></svg>