<svg height="512" viewBox="0 0 60 54" width="512" xmlns="http://www.w3.org/2000/svg"><g id="Page-1" fill="none" fill-rule="evenodd"><g id="060---Eye" fill-rule="nonzero" transform="translate(-1)"><path id="Shape" d="m58.316 31.419c2.2448665-2.5183502 2.2448665-6.3196498 0-8.838-5.162-5.89-15.458-15.581-27.316-15.581s-22.154 9.691-27.316 15.581c-2.24486654 2.5183502-2.24486654 6.3196498 0 8.838 5.162 5.89 15.458 15.581 27.316 15.581s22.154-9.691 27.316-15.581z" fill="#cfd8dc"/><path id="Shape" d="m58.316 22.581c-5.162-5.89-15.458-15.581-27.316-15.581-.5 0-1 .024-1.5.057 11.222.765 20.873 9.884 25.816 15.524 2.2448665 2.5183502 2.2448665 6.3196498 0 8.838-4.943 5.64-14.594 14.759-25.816 15.524.5.033 1 .057 1.5.057 11.858 0 22.154-9.691 27.316-15.581 2.2448665-2.5183502 2.2448665-6.3196498 0-8.838z" fill="#9e9e9e"/><circle id="Oval" cx="31" cy="27" fill="#02a9f4" r="15"/><path id="Shape" d="m31 12c-.506 0-1.007.027-1.5.076 7.6612948.774165 13.491947 7.2236903 13.491947 14.924s-5.8306522 14.149835-13.491947 14.924c.493.049.994.076 1.5.076 8.2842712 0 15-6.7157288 15-15s-6.7157288-15-15-15z" fill="#0377bc"/><circle id="Oval" cx="31" cy="27" fill="#37474f" r="4"/><path id="Shape" d="m20 28c-.5522847 0-1-.4477153-1-1-.0006319-1.1059422.1514716-2.2066734.452-3.271.0872391-.3546602.3608926-.6335496.7138359-.727494s.7290298.012001.9810366.2763627c.2520067.2643617.3398442.6450848.2291275.9931313-.2496926.8881603-.3762083 1.8064085-.376 2.729 0 .2652165-.1053568.5195704-.2928932.7071068s-.4418903.2928932-.7071068.2928932z" fill="#f5f5f5"/><path id="Shape" d="m23 20.45c-.3990042-.0002399-.7596799-.2376503-.9176681-.6040438-.1579882-.3663934-.0830489-.7916401.1906681-1.0819562 2.259256-2.4133005 5.4212344-3.7770781 8.727-3.764.5522847 0 1 .4477153 1 1s-.4477153 1-1 1c-2.7549131-.0103854-5.389894 1.1261381-7.273 3.137-.1889715.19988-.4519323.3130942-.727.313z" fill="#f5f5f5"/><g fill="#000"><path id="Shape" d="m31 48c12.277 0 22.855-9.976 28.068-15.922 2.5789002-2.8941907 2.5789002-7.2618093 0-10.156-5.213-5.946-15.791-15.922-28.068-15.922s-22.855 9.976-28.068 15.922c-2.57890016 2.8941907-2.57890016 7.2618093 0 10.156 5.213 5.946 15.791 15.922 28.068 15.922zm-26.564-24.76c4.989-5.691 15.075-15.24 26.564-15.24s21.575 9.549 26.564 15.24c1.9099275 2.1428545 1.9099275 5.3771455 0 7.52-4.989 5.691-15.075 15.24-26.564 15.24s-21.575-9.549-26.564-15.24c-1.9099275-2.1428545-1.9099275-5.3771455 0-7.52z"/><path id="Shape" d="m31 43c3.4635467.0100492 6.8351922-1.1138326 9.6-3.2.4418278-.3313708.5313708-.9581722.2-1.4s-.9581722-.5313708-1.4-.2c-2.4189207 1.8259406-5.3692991 2.8094001-8.4 2.8-6.3320851-.0022796-11.8737462-4.2559122-13.512914-10.3721558s1.0325947-12.5710933 6.514887-15.739654c5.4822923-3.1685608 12.4090735-2.2613118 16.8904227 2.2122569 4.4813492 4.4735686 5.4006336 11.3987628 2.2416043 16.8865529-.1814844.3095704-.1831833.6926495-.0044519 1.0038174.1787315.311168.5104885.5027136.8693336.5019247s.6897567-.1937913.8671183-.5057421c3.6141681-6.2735044 2.5651711-14.1922041-2.5577863-19.3082941-5.1229573-5.1160899-13.0430571-6.15446353-19.3117077-2.5318833-6.2686506 3.6225802-9.3234877 11.0032422-7.4486589 17.9963877 1.8748289 6.9931456 8.2120516 11.8558412 15.4521529 11.8567897z"/><path id="Shape" d="m26 27c0 2.7614237 2.2385763 5 5 5s5-2.2385763 5-5-2.2385763-5-5-5c-2.7600532.0033061-4.9966939 2.2399468-5 5zm8 0c0 1.6568542-1.3431458 3-3 3s-3-1.3431458-3-3 1.3431458-3 3-3 3 1.3431458 3 3z"/><path id="Shape" d="m5.293 10.293c-.39038194.3904999-.39038194 1.0235001 0 1.414l2 2c.25107447.2599566.62287789.3642126.97250732.2726972.34962944-.0915155.6226744-.3645604.71418984-.7141899.09151544-.3496294-.01274058-.7214328-.27269716-.9725073l-2-2c-.39049985-.39038194-1.02350015-.39038194-1.414 0z"/><path id="Shape" d="m16.553 3.105c-.2374485.11846793-.4180742.32645544-.5021012.57816144-.0840271.251706-.0645647.52648891.0541012.76383856l1 2c.1596977.3197527.4778505.53001867.8346134.55159274.3567628.02157407.6979349-.14882137.895-.447.1970651-.29817864.2200843-.67884004.0603866-.99859274l-1-2c-.1184679-.23744854-.3264554-.41807418-.5781614-.50210122s-.5264889-.0645647-.7638386.05410122z"/><path id="Shape" d="m55.293 10.293-2 2c-.2599566.2510745-.3642126.6228779-.2726972.9725073.0915155.3496295.3645604.6226744.7141899.7141899.3496294.0915154.7214328-.0127406.9725073-.2726972l2-2c.3789722-.3923789.3735524-1.0160848-.0121814-1.4018186-.3857338-.38573377-1.0094397-.39115361-1.4018186-.0121814z"/><path id="Shape" d="m44.105 3.553-1 2c-.1596977.3197527-.1366785.7004141.0603866.99859274.1970651.29817863.5382372.46857407.895.447.3567629-.02157407.6749157-.23184004.8346134-.55159274l1-2c.2468713-.49429485.0462949-1.09512872-.448-1.342s-1.0951287-.04629485-1.342.448z"/><path id="Shape" d="m30 1v2c0 .55228475.4477153 1 1 1s1-.44771525 1-1v-2c0-.55228475-.4477153-1-1-1s-1 .44771525-1 1z"/><path id="Shape" d="m6.707 43.707 2-2c.37897221-.3923789.37355237-1.0160848-.01218142-1.4018186-.3857338-.3857338-1.00943969-.3911536-1.40181858-.0121814l-2 2c-.25995658.2510745-.3642126.6228779-.27269716.9725073.09151544.3496295.3645604.6226744.71418984.7141899.34962943.0915154.72143285-.0127406.97250732-.2726972z"/><path id="Shape" d="m17 51c.3808256.0020788.7297741-.2123306.9-.553l1-2c.2468713-.4942949.0462949-1.0951287-.448-1.342s-1.0951287-.0462949-1.342.448l-1 2c-.1545455.3092668-.1383796.6764236.0427493.9709106.1811288.294487.5015228.4745236.8472507.4760894z"/><path id="Shape" d="m56 44c.4043959-.0000863.7689341-.2437275.923678-.6173454.1547439-.373618.0692299-.8036603-.216678-1.0896546l-2-2c-.3923789-.3789722-1.0160848-.3735524-1.4018186.0121814s-.3911536 1.0094397-.0121814 1.4018186l2 2c.1874927.1875494.4418052.2929434.707.293z"/><path id="Shape" d="m45 51c.3464401-.000185.6681037-.1796678.8501945-.4743943.1820909-.2947265.1986643-.6627032.0438055-.9726057l-1-2c-.2468713-.4942949-.8477051-.6948713-1.342-.448s-.6948713.8477051-.448 1.342l1 2c.1695854.3393743.5166139.553556.896.553z"/><path id="Shape" d="m32 53v-2c0-.5522847-.4477153-1-1-1s-1 .4477153-1 1v2c0 .5522847.4477153 1 1 1s1-.4477153 1-1z"/></g></g></g></svg>