<svg height="512" viewBox="0 0 64 64" width="512" xmlns="http://www.w3.org/2000/svg"><g id="Layer_27" data-name="Layer 27"><path d="m13 33h18a11 11 0 0 1 11 11v18a0 0 0 0 1 0 0h-40a0 0 0 0 1 0 0v-18a11 11 0 0 1 11-11z" fill="#c1c8d1"/><path d="m38 30h24v32h-24z" fill="#c7e2fb"/><path d="m38 57.63c12.49-2 22-12.27 22-24.63a22.79 22.79 0 0 0 -.2-3h-21.8z" fill="#ebf7fe"/><path d="m22 39-6 3-3-9h4z" fill="#ebf7fe"/><path d="m22 39-2.8 1.4 1.8 3.6h2l1.8-3.6z" fill="#698ec0"/><path d="m22 39 6 3 3-9h-4z" fill="#ebf7fe"/><path d="m26 62-3-18h-2l-3 18z" fill="#698ec0"/><path d="m7 47h2v15h-2z" fill="#a0a8b2"/><path d="m31 16v6a9 9 0 0 1 -9 9 9 9 0 0 1 -9-9v-6h6a6 6 0 0 0 4.8-2.4l1.2-1.6 1.2 1.6a6 6 0 0 0 4.8 2.4z" fill="#fcd4a5"/><path d="m22 31a8.94 8.94 0 0 1 -5-1.52v3.52l5 6 5-6v-3.52a8.94 8.94 0 0 1 -5 1.52z" fill="#fcd4a5"/><path d="m13 22v-5h-1a3 3 0 0 0 0 6h1.06a8.26 8.26 0 0 1 -.06-1z" fill="#fcd4a5"/><path d="m22 2a12 12 0 0 0 -12 12v3.78a3 3 0 0 1 2-.78h1v-1h6a6 6 0 0 0 4.8-2.4l1.2-1.6 1.2 1.6a6 6 0 0 0 4.8 2.4v1h1a3 3 0 0 1 2 .78v-3.78a12 12 0 0 0 -12-12z" fill="#cda57d"/><path d="m32 17h-1v5a8.26 8.26 0 0 1 -.06 1h1.06a3 3 0 0 0 0-6z" fill="#fcd4a5"/><g fill="#c1c8d1"><path d="m44 30h12v4h-12z"/><path d="m42 38h4v4h-4z"/><path d="m42 46h4v4h-4z"/><path d="m42 54h4v4h-4z"/><path d="m49 37h10v2h-10z"/><path d="m49 41h10v2h-10z"/><path d="m49 45h10v2h-10z"/><path d="m49 49h10v2h-10z"/><path d="m49 53h10v2h-10z"/><path d="m49 57h10v2h-10z"/></g></g></svg>